<svg xmlns="http://www.w3.org/2000/svg" viewBox="0 0 900 700" role="img" aria-label="Red ENVY apple">
  <defs>
    <radialGradient id="appleGlow" cx="34%" cy="22%" r="70%">
      <stop offset="0%" stop-color="#ffb3bd"/>
      <stop offset="28%" stop-color="#e10a2f"/>
      <stop offset="70%" stop-color="#9f001b"/>
      <stop offset="100%" stop-color="#4a000d"/>
    </radialGradient>
    <linearGradient id="leaf" x1="0%" x2="100%" y1="0%" y2="100%">
      <stop offset="0%" stop-color="#d9b76f"/>
      <stop offset="100%" stop-color="#6f4b14"/>
    </linearGradient>
    <filter id="shadow" x="-20%" y="-20%" width="140%" height="140%">
      <feDropShadow dx="0" dy="26" stdDeviation="28" flood-color="#4a000d" flood-opacity="0.32"/>
    </filter>
  </defs>
  <rect width="900" height="700" fill="none"/>
  <path filter="url(#shadow)" fill="url(#appleGlow)" d="M456 148c52-59 137-69 200-21 90 68 88 229 37 352-48 117-121 171-198 139-28-12-53-18-76-18-25 0-50 6-79 18-76 31-150-24-197-139-50-122-53-283 37-352 64-49 148-37 200 21 17 19 39 19 56 0z"/>
  <path fill="#3b150d" d="M459 148c-18-65 13-113 76-139 18 64-6 117-76 139z"/>
  <path fill="url(#leaf)" d="M518 89c53-57 124-57 173-14-45 60-116 73-173 14z"/>
  <path fill="#ffffff" opacity=".34" d="M250 177c50-45 119-47 162-3-91 15-154 65-194 150-12-51 0-99 32-147z"/>
  <path fill="#ffffff" opacity=".13" d="M597 184c65 64 69 196 22 305-25 58-65 92-109 96 85-108 112-288 87-401z"/>
  <circle cx="312" cy="250" r="8" fill="#fff" opacity=".42"/>
  <circle cx="352" cy="216" r="5" fill="#fff" opacity=".35"/>
  <circle cx="613" cy="286" r="7" fill="#fff" opacity=".22"/>
</svg>
